<?xml version="1.0" encoding="UTF-8"?>
<svg xmlns="http://www.w3.org/2000/svg" width="8.5in" height="11in" viewBox="0 0 2550 3300" role="img" aria-labelledby="title desc">
  <title id="title">Chapaa Face Printable v2</title>
  <desc id="desc">Clean Chapaa-inspired face with pointy ears, shaggy cheeks, and orange-brown fur regions.</desc>

  <rect x="0" y="0" width="2550" height="3300" fill="#ffffff"/>

  <g transform="translate(1275 1640) scale(2.6)">
    <!-- Back ear fur (pointy) -->
    <path d="M-342 -298 C-438 -406 -456 -542 -372 -612 C-308 -666 -220 -642 -177 -565 C-148 -511 -145 -447 -170 -383 Z"
          fill="#cc7b2f" stroke="#111" stroke-width="10" stroke-linejoin="round"/>
    <path d="M342 -298 C438 -406 456 -542 372 -612 C308 -666 220 -642 177 -565 C148 -511 145 -447 170 -383 Z"
          fill="#cc7b2f" stroke="#111" stroke-width="10" stroke-linejoin="round"/>

    <!-- Inner ear -->
    <path d="M-286 -355 C-346 -430 -352 -526 -302 -571 C-262 -607 -206 -589 -177 -537 C-154 -496 -152 -447 -169 -400 Z"
          fill="#f4aba6" stroke="#111" stroke-width="8"/>
    <path d="M286 -355 C346 -430 352 -526 302 -571 C262 -607 206 -589 177 -537 C154 -496 152 -447 169 -400 Z"
          fill="#f4aba6" stroke="#111" stroke-width="8"/>

    <!-- Head silhouette with shaggy sides -->
    <path d="M-306 -287
             C-306 -392 -224 -468 -111 -477
             C-35 -482 55 -482 139 -472
             C257 -458 341 -373 341 -260
             C341 -215 327 -170 299 -132
             C338 -102 364 -54 366 2
             C367 69 340 130 295 173
             C266 200 230 221 190 238
             C171 248 155 264 139 283
             C124 301 104 309 75 309
             C15 314 -43 314 -108 307
             C-132 304 -151 292 -167 274
             C-183 256 -201 244 -225 235
             C-284 213 -332 172 -358 114
             C-379 67 -381 10 -366 -42
             C-352 -88 -325 -124 -292 -149
             C-331 -183 -354 -232 -346 -275
             C-335 -270 -324 -274 -306 -287 Z"
          fill="#f4ecdf" stroke="#111" stroke-width="12"/>

    <!-- Top orange cap -->
    <path d="M-255 -260
             C-244 -366 -170 -424 -77 -429
             C-11 -432 61 -432 127 -425
             C222 -416 286 -357 291 -271
             C292 -242 284 -214 270 -188
             C242 -176 220 -169 188 -166
             C126 -161 68 -160 7 -159
             C-69 -158 -148 -167 -216 -194
             C-236 -212 -252 -235 -255 -260 Z"
          fill="#d48438" stroke="#111" stroke-width="9"/>

    <!-- Side orange fur patches -->
    <path d="M-302 -80 C-274 -95 -248 -120 -232 -154 C-211 -127 -190 -109 -156 -92 C-183 -63 -219 -44 -268 -39 Z"
          fill="#d48438" stroke="#111" stroke-width="8"/>
    <path d="M302 -80 C274 -95 248 -120 232 -154 C211 -127 190 -109 156 -92 C183 -63 219 -44 268 -39 Z"
          fill="#d48438" stroke="#111" stroke-width="8"/>

    <!-- Forehead darker stripes -->
    <path d="M-82 -355 C-107 -326 -106 -286 -83 -258" fill="none" stroke="#b56b2f" stroke-width="16" stroke-linecap="round"/>
    <path d="M0 -360 C-24 -330 -23 -287 0 -254" fill="none" stroke="#b56b2f" stroke-width="16" stroke-linecap="round"/>
    <path d="M84 -350 C62 -323 63 -286 86 -257" fill="none" stroke="#b56b2f" stroke-width="16" stroke-linecap="round"/>

    <!-- Cream eye patches -->
    <path d="M-230 -177 C-192 -211 -134 -210 -98 -174 C-70 -147 -66 -105 -81 -67 C-111 -41 -176 -31 -223 -49 C-248 -81 -255 -134 -230 -177 Z"
          fill="#f9f4ea" stroke="#111" stroke-width="8"/>
    <path d="M230 -177 C192 -211 134 -210 98 -174 C70 -147 66 -105 81 -67 C111 -41 176 -31 223 -49 C248 -81 255 -134 230 -177 Z"
          fill="#f9f4ea" stroke="#111" stroke-width="8"/>

    <!-- Eyes -->
    <path d="M-196 -106 C-170 -140 -132 -140 -106 -106" fill="none" stroke="#111" stroke-width="18" stroke-linecap="round"/>
    <path d="M196 -106 C170 -140 132 -140 106 -106" fill="none" stroke="#111" stroke-width="18" stroke-linecap="round"/>

    <!-- Nose -->
    <path d="M0 -72 C-50 -97 -97 -49 -87 4 C-78 49 -43 81 0 89 C43 81 78 49 87 4 C97 -49 50 -97 0 -72 Z"
          fill="#4f3023" stroke="#111" stroke-width="10"/>
    <ellipse cx="19" cy="-21" rx="28" ry="14" fill="#bfa698" opacity="0.55"/>

    <!-- Teeth -->
    <path d="M-102 8 C-148 35 -172 88 -166 146 C-160 194 -124 225 -73 225 C-44 225 -17 215 2 193 C-11 147 -15 97 -12 48 C-37 24 -66 10 -102 8 Z"
          fill="#ffffff" stroke="#111" stroke-width="8"/>
    <path d="M102 8 C148 35 172 88 166 146 C160 194 124 225 73 225 C44 225 17 215 -2 193 C11 147 15 97 12 48 C37 24 66 10 102 8 Z"
          fill="#ffffff" stroke="#111" stroke-width="8"/>

    <!-- Mouth -->
    <path d="M0 88 L0 182" fill="none" stroke="#111" stroke-width="10" stroke-linecap="round"/>
    <path d="M0 182 C-31 216 -84 223 -132 190" fill="none" stroke="#111" stroke-width="10" stroke-linecap="round"/>
    <path d="M0 182 C31 216 84 223 132 190" fill="none" stroke="#111" stroke-width="10" stroke-linecap="round"/>

    <!-- Shaggy cheek tufts -->
    <path d="M-304 10 C-327 24 -344 43 -355 67 C-328 76 -305 77 -278 71 C-296 97 -304 123 -304 152 C-277 153 -254 147 -232 133"
          fill="none" stroke="#111" stroke-width="9" stroke-linecap="round" stroke-linejoin="round"/>
    <path d="M304 10 C327 24 344 43 355 67 C328 76 305 77 278 71 C296 97 304 123 304 152 C277 153 254 147 232 133"
          fill="none" stroke="#111" stroke-width="9" stroke-linecap="round" stroke-linejoin="round"/>

    <!-- Lower contour -->
    <path d="M-146 225 C-88 257 89 257 146 225" fill="none" stroke="#111" stroke-width="8" stroke-linecap="round"/>
  </g>
</svg>
